<svg version="1.2" xmlns="http://www.w3.org/2000/svg" viewBox="0 0 467 141" width="467" height="141"><defs><clipPath clipPathUnits="userSpaceOnUse" id="cp1"><path d="m30.3 22h107v106.6h-107z"/></clipPath></defs><style>.a{fill:#8c52ff}.b{fill:#fff}</style><g clip-path="url(#cp1)"><path class="a" d="m72.8 25.8c6.6-4.2 15.5-4.2 22 0 6.2 3.7 10.1 10.8 10.2 18 5.2 0 10.4 0 15.6 0 2.7-0.2 5.4 2 5.5 4.8q5.3 36.8 10.5 73.6c0.7 3.1-2 6.4-5.3 6.2q-47.5 0-95.1 0c-3.2 0.2-5.9-3-5.2-6.2q5.2-36.7 10.5-73.5c0.1-2.8 2.7-5.1 5.5-4.9 5.2 0 10.4 0.1 15.6 0 0.1-7.2 4-14.3 10.2-18zm0.3 18c7.1 0.1 14.3 0 21.5 0-0.3-5.6-5-10.7-10.8-10.6-5.8-0.1-10.5 5-10.7 10.6z"/></g><path class="b" d="m98.6 91.1l12.2 3.8q-5.5 20.1-25.8 20.1-12.4 0-20.4-8.5-8-8.4-8-23.1 0-15.5 8-24.1 8.1-8.6 21.1-8.6 11.5 0 18.6 6.8 4.2 4 6.3 11.4l-12.4 3q-1.1-4.8-4.6-7.6-3.5-2.8-8.5-2.8-7 0-11.3 4.9-4.3 5-4.3 16.1 0 11.7 4.3 16.8 4.2 5 11 5 5.1 0 8.7-3.2 3.6-3.2 5.1-10z"/><path class="b" d="m140.1 88.5q0-4.5 2.3-8.7 2.2-4.2 6.3-6.4 4.1-2.3 9.1-2.3 7.8 0 12.8 5.1 5 5.1 5 12.7 0 7.8-5.1 13-5 5.1-12.6 5.1-4.7 0-9-2.1-4.3-2.2-6.5-6.3-2.3-4.1-2.3-10.1zm9.4 0.6q0 5.1 2.4 7.8 2.4 2.7 6 2.7 3.5 0 5.9-2.7 2.4-2.7 2.4-7.9 0-5-2.4-7.7-2.4-2.8-5.9-2.8-3.6 0-6 2.8-2.4 2.7-2.4 7.8z"/><path class="b" d="m205.3 106.2v-5.2q-1.9 2.8-5 4.4-3 1.6-6.4 1.6-3.5 0-6.2-1.5-2.8-1.6-4-4.3-1.2-2.7-1.2-7.6v-21.8h9.1v15.9q0 7.2 0.5 8.8 0.5 1.6 1.8 2.6 1.3 1 3.4 1 2.3 0 4.1-1.3 1.9-1.3 2.5-3.1 0.7-1.9 0.7-9.3v-14.6h9.1v34.4z"/><path class="b" d="m222.9 71.8h8.4v5.2q1.7-2.6 4.5-4.2 2.8-1.7 6.2-1.7 6 0 10.2 4.7 4.2 4.6 4.2 13.1 0 8.6-4.3 13.4-4.2 4.7-10.2 4.7-2.8 0-5.1-1.1-2.3-1.1-4.9-3.9v17.2h-9zm9 16.7q0 5.7 2.2 8.5 2.3 2.8 5.7 2.8 3.1 0 5.2-2.5 2.1-2.6 2.1-8.4 0-5.4-2.2-8-2.1-2.6-5.4-2.6-3.3 0-5.5 2.6-2.1 2.5-2.1 7.6z"/><path class="b" d="m261.4 88.5q0-4.5 2.2-8.7 2.3-4.2 6.4-6.4 4.1-2.3 9.1-2.3 7.8 0 12.8 5.1 5 5.1 5 12.7 0 7.8-5.1 13-5 5.1-12.6 5.1-4.7 0-9-2.1-4.3-2.2-6.6-6.3-2.2-4.1-2.2-10.1zm9.4 0.6q0 5.1 2.4 7.8 2.4 2.7 6 2.7 3.5 0 5.9-2.7 2.4-2.7 2.4-7.9 0-5-2.4-7.7-2.4-2.8-5.9-2.8-3.6 0-6 2.8-2.4 2.7-2.4 7.8z"/><path class="b" d="m335.2 106.2h-9.1v-17.5q0-5.6-0.6-7.2-0.5-1.6-1.8-2.5-1.4-0.9-3.2-0.9-2.3 0-4.2 1.3-1.9 1.3-2.6 3.4-0.7 2.1-0.7 7.9v15.5h-9.1v-34.4h8.4v5.2q4.5-5.9 11.4-5.9 3 0 5.5 1.1 2.5 1 3.7 2.7 1.3 1.7 1.8 3.9 0.5 2.1 0.5 6.1z"/><path class="b" d="m344.3 106.2v-47.4h14.3l8.7 32.3 8.4-32.3h14.4v47.4h-8.9v-37.3l-9.4 37.3h-9.2l-9.4-37.3v37.3z"/><path class="b" d="m399.5 67.2v-8.4h9.1v8.4zm0 39v-34.4h9.1v34.4z"/><path class="b" d="m424.7 82.4l-8.2-1.5q1.4-5 4.7-7.4 3.4-2.4 10.1-2.4 6.1 0 9.1 1.5 3 1.4 4.2 3.6 1.2 2.2 1.2 8.1l-0.1 10.7q0 4.5 0.4 6.6 0.4 2.2 1.6 4.6h-8.9q-0.4-0.8-0.7-2.2-0.4-1.3-0.5-1.6-4.7 4.6-10.7 4.6-5.3 0-8.3-2.9-3-2.9-3-7.3 0-2.9 1.3-5.1 1.4-2.3 3.9-3.5 2.5-1.3 7.3-2.2 6.3-1.2 8.8-2.2v-0.9q0-2.6-1.3-3.7-1.3-1.1-4.9-1.1-2.4 0-3.8 0.9-1.4 1-2.2 3.4zm12.2 7.3q-1.8 0.6-5.6 1.4-3.8 0.8-4.9 1.6-1.8 1.3-1.8 3.2 0 1.9 1.4 3.3 1.5 1.4 3.7 1.4 1.5 0 2.9-0.6 1.4-0.6 2.4-1.6 1-1 1.4-2.1 0.5-1.2 0.5-4.8z"/></svg>